<svg width="81" height="98" viewBox="0 0 81 98" fill="none" xmlns="http://www.w3.org/2000/svg">
<g filter="url(#filter0_d_95_45)">
<g filter="url(#filter1_d_95_45)">
<path d="M40.5 0C60.6584 0 77 16.3416 77 36.5C77 53.0239 66.019 66.98 50.957 71.4766L40.5 89.5898L30.042 71.4766C14.9805 66.9797 4 53.0235 4 36.5C4.00003 16.3416 20.3416 0 40.5 0Z" fill="white"/>
</g>
<path d="M40.5 2.84668C59.0015 2.84668 74 17.8451 74 36.3467C73.9998 51.8456 63.4736 64.8837 49.1807 68.708L40.5 83.7441L31.8184 68.708C17.5259 64.8834 7.00022 51.8453 7 36.3467C7 17.8451 21.9985 2.84668 40.5 2.84668Z" fill="#164EDE"/>
<circle cx="40.5" cy="36.2949" r="29.5" fill="#FFFBEB"/>
</g>
<defs>
<filter id="filter0_d_95_45" x="0" y="0" width="81" height="101.59" filterUnits="userSpaceOnUse" color-interpolation-filters="sRGB">
<feFlood flood-opacity="0" result="BackgroundImageFix"/>
<feColorMatrix in="SourceAlpha" type="matrix" values="0 0 0 0 0 0 0 0 0 0 0 0 0 0 0 0 0 0 127 0" result="hardAlpha"/>
<feOffset dy="4"/>
<feGaussianBlur stdDeviation="2"/>
<feComposite in2="hardAlpha" operator="out"/>
<feColorMatrix type="matrix" values="0 0 0 0 0 0 0 0 0 0 0 0 0 0 0 0 0 0 0.25 0"/>
<feBlend mode="normal" in2="BackgroundImageFix" result="effect1_dropShadow_95_45"/>
<feBlend mode="normal" in="SourceGraphic" in2="effect1_dropShadow_95_45" result="shape"/>
</filter>
<filter id="filter1_d_95_45" x="0" y="0" width="81" height="97.5898" filterUnits="userSpaceOnUse" color-interpolation-filters="sRGB">
<feFlood flood-opacity="0" result="BackgroundImageFix"/>
<feColorMatrix in="SourceAlpha" type="matrix" values="0 0 0 0 0 0 0 0 0 0 0 0 0 0 0 0 0 0 127 0" result="hardAlpha"/>
<feOffset dy="4"/>
<feGaussianBlur stdDeviation="2"/>
<feComposite in2="hardAlpha" operator="out"/>
<feColorMatrix type="matrix" values="0 0 0 0 0 0 0 0 0 0 0 0 0 0 0 0 0 0 0.25 0"/>
<feBlend mode="normal" in2="BackgroundImageFix" result="effect1_dropShadow_95_45"/>
<feBlend mode="normal" in="SourceGraphic" in2="effect1_dropShadow_95_45" result="shape"/>
</filter>
</defs>
</svg>
